Patient4_TMGait_0pt6_02_right_19_EMG.mot
version=1
nRows=36
nColumns=33
inDegrees=no
endheader
time	1LAddLong	2LGlutMax	3LGlutMed	4LIliopsoas	5LSemiMemb	6LBicFemLong	7LRecFem	8LVastMed	9LVastLat	10LGasMed	11LTibAnt	12lTibPost	13LPeroneusLong	14LSol	15LExtDigLong	16LFlexDigLong	17RAddLong	18RGlutMax	19RGlutMed	20RIliopsoas	21RSemiMemb	22RBicFemLong	23RRecFem	24RVastMed	25RVastLat	26RGasMed	27RTibAnt	28RTibPost	29RPeroneusLong	30RSol	31RExtDigLong	32RFlexDigLong
22.73	-0.002899	-0.006256	0.094147	0.00351	-0.041046	0.032654	0.016327	0.00473	-0.006866	-0.053101	-0.003815	-0.1329	-0.32806	0.1294	0.035858	-1.2164	0.097961	-0.13992	0.36179	0.095062	-0.088501	-0.081177	0.17319	-0.10941	-0.015869	-0.005798	-0.013733	-0.014496	0.060577	0.009766	-0.003662	-0.007172
22.731	-0.01358	0.015106	0.076141	0.016632	0.002594	-0.012665	0.023499	0.003815	-0.022583	0.098877	-0.016785	-0.13031	-0.37308	0.345	0.03479	0.50873	0.066681	-0.11856	0.21668	0.033417	-0.082855	-0.072937	0.16953	-0.20172	-0.015259	-0.005341	0.121	-0.00946	0.071259	0.006104	-0.000458	-0.006561
22.732	-0.002289	-0.006561	0.058136	0.01236	-0.028381	-0.024567	0.021362	0.005188	-0.030823	0.077362	-0.010223	0.062866	-0.36209	0.56686	0.03952	0.078583	0.035706	-0.15762	0.15137	0.008087	-0.082092	-0.045624	0.17532	-0.16052	-0.014343	0.000153	0.057983	-0.016327	0.10681	-0.033112	-0.001984	-0.003052
22.733	0.027313	-0.003662	-0.033722	0.004272	0.064697	-0.075226	-0.006866	-0.003357	-0.029755	0.17807	-0.012512	0.10803	-0.13794	0.55389	0.018921	0.44922	0.009003	-0.16098	0.093231	-0.03418	-0.075836	-0.010529	0.19348	-0.12192	-0.007935	0.002289	-0.034485	-0.016327	0.034943	-0.056	-0.002747	-0.003967
22.734	0.032654	0.026855	-0.02243	0.002441	0.13489	-0.027771	-0.031891	-0.007172	-0.048676	0.45853	-0.0177	0.055237	0.18372	0.21362	-0.030212	-0.004272	-0.025635	-0.16525	0.073853	-0.057068	-0.034637	-0.004578	0.16144	-0.13428	-0.001068	0.001373	0.13596	-0.015106	-0.10468	-0.036316	-0.003204	0.002136
22.735	0.020599	0.02182	0.031281	-0.00473	0.078888	0.007935	-0.018921	-0.006256	-0.048065	0.75623	-0.023193	0.01709	0.26535	-0.11658	-0.01358	0.39383	-0.05188	-0.15747	0.10239	-0.06012	-0.000153	0.024414	0.11902	-0.11856	0.015411	-0.000458	0.31555	-0.010681	-0.21362	-0.036469	-0.002136	0.006409
22.736	0.013733	0.058136	-0.083466	0.03006	0.052338	0.051117	-0.000153	0.000763	-0.053558	0.55206	-0.025482	0.071106	0.23224	-0.60547	-0.004425	0.21332	-0.051575	-0.11017	0.12726	-0.007172	0.000305	0.017242	0.10574	-0.049438	0.001678	0.000305	0.55054	-0.020599	-0.18127	-0.10468	-0.002136	0.00824
22.737	0.005188	0.075684	-0.022125	0.001678	0.028839	0.077515	0.032196	0.002289	-0.045929	-0.12039	-0.027313	0.20111	0.19806	-0.84457	0.013275	-0.22766	-0.066223	-0.1387	0.14572	-0.052338	-0.001831	0.033112	0.073242	-0.064697	0.024414	0.001984	0.47516	-0.014954	0.1651	-0.13992	-0.002289	0.005646
22.738	0.010986	0.09964	-0.015106	0.002747	0.035248	0.049896	0.082855	0.002136	-0.019226	-0.066833	-0.011139	-0.28412	0.13397	-0.70969	0.039215	-0.20859	-0.094452	-0.10269	0.20508	-0.042572	0.010834	0.049591	0.086517	-0.03067	0.031281	-0.006256	0.25971	-0.015564	0.09079	-0.087128	-0.006866	0.003204
22.739	0.009613	0.11856	0.074463	-0.001678	0.020142	-0.005493	0.13382	0.003815	0.083923	-0.055695	-0.011749	-0.10788	0.1561	-0.28748	0.044098	-0.066071	-0.11337	0.001984	0.34302	-0.046387	0.007629	0.039673	0.028992	-0.049896	0.027618	-0.006561	-0.08728	-0.017242	-0.085907	0.001373	-0.002747	0.003662
22.74	0.007172	0.076599	0.062256	0.005951	0.041046	-0.048676	0.16525	0.009155	0.093689	0.24277	-0.000916	-0.5481	0.12192	0.093079	0.027924	-0.11215	-0.10086	0.007629	0.50415	-0.11948	0.012207	0.03952	-0.04425	-0.053864	0.037537	-0.010223	-0.37491	-0.021515	-0.27557	0.034943	-0.00351	0.00946
22.741	0.007629	0.084534	0.024414	0.013428	0.049744	-0.018463	0.10452	0.008087	0.074615	0.080872	0.007629	0.50446	0.037994	0.52399	0.023956	-0.11673	-0.07309	-0.023346	0.52094	-0.15839	0.010986	0.042114	-0.00473	-0.043182	0.029297	-0.007019	-0.46555	-0.016174	-0.2478	-0.032806	-0.002899	0.008545
22.742	-0.000916	0.097351	0.007477	0.006104	0.024414	0.003052	0.097504	0.013123	0.027618	0.041504	-0.010071	0.29114	-0.00351	0.63339	-0.000153	-0.052338	-0.052643	-0.025024	0.25406	0.049744	0.000763	0.036774	0.050659	-0.029755	0.027161	-0.005798	-0.35248	-0.016327	0.28427	0.016937	-0.001678	0.003662
22.743	-0.004883	0.091858	-0.011292	-0.00351	0.029449	-0.000763	0.10361	0.005035	0.02594	0.3038	-0.016479	0.085449	-0.018768	0.63065	-0.024109	-0.029449	-0.045013	-0.039063	-0.20218	0.10727	-0.008392	0.041046	0.025177	-0.041809	0.023499	-0.00885	-0.23102	-0.012512	0.41992	0.092316	-0.001373	0.006256
22.744	0.00412	0.11795	0.16495	0.006256	0.031586	-0.066681	0.060272	0.011902	0.01709	0.37155	0.046539	-0.15213	0.012817	0.55664	-0.075989	-0.023651	-0.028839	-0.080261	-0.030823	0.065155	-0.01358	0.032501	0.010834	-0.059967	0.020142	-0.007019	-0.052185	-0.023804	-0.1471	0.15121	0.000458	-0.001526
22.745	0.007629	0.13153	0.0914	0.017853	-0.001373	-0.053406	0.006714	0.065002	-0.002594	-0.14984	-0.017548	-0.1207	0.072632	-0.48401	-0.088959	-0.13886	-0.022736	-0.072479	0.23132	0.033875	-0.025482	0.055847	0.019836	-0.058899	0.020294	-0.010376	0.097656	-0.020752	-0.19516	0.12207	-0.003357	0.002289
22.746	0.00824	0.10071	0.072632	0.010681	-0.048065	-0.046539	-0.071106	-0.017395	-0.03067	-0.75333	-0.019531	-0.045471	0.25971	-0.80994	-0.06424	-0.11398	-0.021515	-0.16388	0.076752	0.022125	-0.007935	0.065155	0.039368	-0.070953	0.024719	-0.007019	0.20142	-0.020294	-0.023346	0.080414	-0.000305	0.000153
22.747	0.012665	0.087433	0.056763	0.026093	-0.03479	-0.03418	-0.0383	0.007172	-0.076141	-0.6459	0.016785	-0.064087	0.34317	-1.1057	-0.044861	0.006714	-0.023346	-0.10346	0.19089	-0.010681	-0.005951	0.065308	-0.004883	-0.075531	0.010376	-0.021667	0.22125	-0.014954	0.038757	0.020905	-0.000305	0.003357
22.748	0.013885	0.1207	0.016022	0.013885	-0.028381	-0.013123	-0.039978	0.005646	-0.018005	-0.4332	0.024109	-0.041809	0.27832	-0.57678	-0.032806	0.13779	-0.019836	-0.057526	0.30502	0.001526	-0.010986	0.063324	-0.005035	-0.11917	0.014038	-0.008392	0.10696	-0.019073	0.21423	-0.001373	0.003967	-0.002899
22.749	0.019226	0.14389	0.006104	0.007172	0.021515	0.011597	-0.063629	-0.002441	-0.005798	-0.3627	0.008698	-0.054474	0.17029	-0.16541	-0.018311	0.070648	-0.016785	-0.077057	0.20355	-0.027161	-0.010223	0.071106	0.000916	-0.092621	0.02243	-0.006104	-0.063324	-0.020142	0.12421	-0.01297	-0.002441	0.004272
22.75	0.019379	0.15747	0.009003	0.000305	0.055695	0.051422	-0.086975	0.010529	-0.007782	-0.3241	0.009766	0.018768	-0.044861	-0.085449	-0.004425	-0.023956	-0.00824	-0.092468	0.099182	-0.044098	-0.008545	0.049133	-0.035095	-0.060883	0.042572	0.003967	-0.080566	-0.015564	-0.050354	-0.043488	-0.001984	0.000916
22.751	0.020905	0.18188	0.063019	0.007477	0.022888	0.038147	-0.056458	0.001221	0.021973	-0.079651	0.001221	-0.00824	-0.1445	0.48859	0.016632	-0.13046	-0.011292	-0.10925	0.089569	-0.082397	0.011292	0.055237	0.009003	-0.061798	0.046082	-0.00412	0.24033	-0.018768	0.063782	-0.048828	-0.001984	0.009308
22.752	0.015259	0.15961	0.088196	0.009613	-0.003052	-0.000305	-0.011597	-0.012665	0.011444	0.25711	-0.017395	-0.026398	-0.043488	0.60913	0.027466	-0.13412	-0.00412	-0.13473	-0.049591	-0.13336	-0.037842	0.057526	0.005798	-0.08194	0.037384	0.003967	0.24414	-0.018616	0.55206	-0.019531	0.002441	0.001526
22.753	0.005035	0.20065	-0.054779	0.017853	0.003204	0.014343	0.081635	-0.00351	-0.029755	0.35431	-0.007782	-0.011597	0.074005	0.28061	0.019684	-0.1297	0.013733	-0.1062	-0.07782	-0.080566	-0.12863	0.046997	0.036469	-0.084839	0.03479	0.001678	0.006866	-0.020294	0.60852	0.006104	-0.003052	0.007019
22.754	0.002441	0.19211	-0.050049	-0.001984	0.005798	-0.018158	0.097656	-0.004883	0.009003	0.18127	0.002594	0.11215	-0.03067	-0.074768	0.007324	0.04425	0.014038	-0.11841	-0.066223	0.030975	-0.13718	0.030518	0.045624	-0.10361	0.006409	0.00412	-0.087738	-0.011139	0.11231	-0.035858	0	0.000763
22.755	-0.004272	0.18967	-0.079498	0.017548	-0.007935	-0.031128	0.11246	-0.001984	0.018921	0.25284	0.011597	0.29648	-0.14465	-0.023193	0.002289	-0.060577	0.044861	-0.098114	-0.081329	0.17609	-0.1001	0.006409	0.033112	-0.075378	0.014496	0.00885	-0.045319	-0.019073	0.073395	-0.034637	-0.002289	0.00061
22.756	-0.005798	0.19211	-0.056305	0.014496	-0.016785	-0.065002	0.048981	-0.011749	0.049591	0.20935	0.00061	-0.08667	-0.16373	0.32318	0.041656	0.22385	0.063782	-0.049591	0.028229	0.2243	0.042267	0.009918	-0.009766	-0.13168	0.021515	0.004272	0.010529	-0.019073	0.28183	0.062103	-0.000916	-0.001831
22.757	0.019531	0.21347	0.015869	-0.010376	0.003662	-0.055542	-0.028381	-0.009003	0.076752	-0.092926	-0.002136	-0.1738	-0.1648	-0.12314	0.0354	0.30579	0.045471	-0.035095	0.025635	0.15961	0.071411	-0.028534	0.045776	-0.15701	0.00412	0.003967	0.045776	-0.02533	0.083618	0.061646	0.000153	-0.004425
22.758	0.010223	0.20706	-0.01709	0.003815	0.01709	-0.018921	-0.021973	0.012207	0.062561	-0.50186	0.002289	0.018616	-0.18417	-0.62073	-0.00473	0.004883	0.012054	-0.031586	-0.019836	0.10941	-0.020905	-0.051727	0.059662	-0.18997	0	0.002899	0.06134	-0.019073	-0.053558	-0.015106	0.002441	-0.003357
22.759	0.012054	0.2121	0.13687	-0.002594	0.00824	0.003357	-0.027161	0.002899	0.066528	-0.4042	-0.003967	-0.007782	-0.15228	-0.65536	0.012512	-0.32196	-0.021515	-0.052948	-0.037384	0.076294	-0.084076	-0.031433	0.045013	-0.17487	0.003204	0.000153	0.07843	-0.016632	0.090485	-0.031433	-0.002899	-0.005646
22.76	0.003204	0.20172	0.10529	0.002289	-0.014038	0.022736	-0.005951	0	0.063171	-0.22644	-0.005646	-0.14984	-0.12924	-0.5777	0.031433	-0.11322	-0.024719	-0.028992	-0.042267	0.048218	-0.052643	-0.02655	0.041656	-0.17685	0.002747	-0.003204	0.10056	-0.015259	0.12009	-0.018311	-0.000305	-0.01358
22.761	0.005646	0.159	0.095062	0.00061	-0.051575	0.030212	0.049286	0.007629	0.00412	-0.048523	-0.002136	-0.082855	-0.15686	-0.40253	0.005951	0.17105	-0.028076	-0.064545	-0.040436	-0.004272	0.010376	0.015411	0.039215	-0.14908	-0.002289	-0.000916	0.071411	-0.023041	0.006409	-0.023651	-0.001373	-0.010681
22.762	0.002136	0.16022	0.042419	-0.008545	-0.080719	0.039825	0.053101	0.013733	-0.00412	0.099945	0.001221	0.050964	-0.041809	-0.3595	-0.007324	-0.28748	-0.02533	-0.065918	-0.12314	-0.067139	0.070953	0.040283	0.039825	-0.11108	0.004883	-0.003052	0.07843	-0.019531	-0.23346	-0.066833	0.000763	-0.017548
22.763	-0.01297	0.16403	-0.014191	0.009766	-0.046997	0.058746	0.060425	0.01297	0.001678	0.14587	-0.014801	0.058289	0.044098	0.16434	-0.004425	-0.60242	-0.011444	-0.002136	-0.16861	0.00412	-0.0354	0.012054	0.042725	-0.12329	0.011749	0.001526	0.13733	-0.019379	-0.61203	-0.062714	-0.003662	-0.02533
22.764	-0.008698	0.1532	0.048981	0.002136	0.023193	0.042267	0.045013	0.004578	0.023804	0.077362	-0.024109	-0.15762	0.16678	0.78247	0.010681	0.54108	0.002289	-0.032806	-0.087433	0.037537	-0.075226	-0.02121	0.024872	-0.11902	0.011902	-0.005951	0.089722	-0.020294	-0.30563	-0.039368	-0.002899	-0.020294
22.765	-0.007629	0.15854	0.10254	-0.011597	-0.052643	0.041351	0.039673	0.006256	0.069427	0.12436	-0.021667	0.007782	0.28107	0.65124	0.013275	0.083313	0.016327	0.017395	0.31555	0.007782	-0.098419	-0.036469	0.058441	-0.14786	0.022888	-0.006409	0.012207	-0.019836	0.006409	-0.051117	-0.001373	-0.015106
